<svg width="131" height="28" viewBox="0 0 131 28" fill="none" xmlns="http://www.w3.org/2000/svg">
<path d="M1.72159 22.5V5.04545H12.9034V7.69602H4.88352V12.4347H12.1364V15.0852H4.88352V22.5H1.72159ZM15.4602 22.5V9.40909H18.4517V11.5909H18.5881C18.8267 10.8352 19.2358 10.2528 19.8153 9.84375C20.4006 9.42898 21.0682 9.22159 21.8182 9.22159C21.9886 9.22159 22.179 9.23011 22.3892 9.24716C22.6051 9.25852 22.7841 9.27841 22.9261 9.30682V12.1449C22.7955 12.0994 22.5881 12.0597 22.304 12.0256C22.0256 11.9858 21.7557 11.9659 21.4943 11.9659C20.9318 11.9659 20.4261 12.0881 19.9773 12.3324C19.5341 12.571 19.1847 12.9034 18.929 13.3295C18.6733 13.7557 18.5455 14.2472 18.5455 14.804V22.5H15.4602ZM28.5085 22.7642C27.679 22.7642 26.9318 22.6165 26.267 22.321C25.608 22.0199 25.0852 21.5767 24.6989 20.9915C24.3182 20.4062 24.1278 19.6847 24.1278 18.8267C24.1278 18.0881 24.2642 17.4773 24.5369 16.9943C24.8097 16.5114 25.1818 16.125 25.6534 15.8352C26.125 15.5455 26.6563 15.3267 27.2472 15.179C27.8438 15.0256 28.4602 14.9148 29.0966 14.8466C29.8636 14.767 30.4858 14.696 30.9631 14.6335C31.4403 14.5653 31.7869 14.4631 32.0028 14.3267C32.2244 14.1847 32.3352 13.9659 32.3352 13.6705V13.6193C32.3352 12.9773 32.1449 12.4801 31.7642 12.1278C31.3835 11.7756 30.8352 11.5994 30.1193 11.5994C29.3636 11.5994 28.7642 11.7642 28.321 12.0938C27.8835 12.4233 27.5881 12.8125 27.4347 13.2614L24.554 12.8523C24.7813 12.0568 25.1563 11.392 25.679 10.858C26.2017 10.3182 26.8409 9.91477 27.5966 9.64773C28.3523 9.375 29.1875 9.23864 30.1023 9.23864C30.733 9.23864 31.3608 9.3125 31.9858 9.46023C32.6108 9.60795 33.1818 9.85227 33.6989 10.1932C34.2159 10.5284 34.6307 10.9858 34.9432 11.5653C35.2614 12.1449 35.4205 12.8693 35.4205 13.7386V22.5H32.4545V20.7017H32.3523C32.1648 21.0653 31.9006 21.4062 31.5597 21.7244C31.2244 22.0369 30.8011 22.2898 30.2898 22.483C29.7841 22.6705 29.1903 22.7642 28.5085 22.7642ZM29.3097 20.4972C29.929 20.4972 30.4659 20.375 30.9205 20.1307C31.375 19.8807 31.7244 19.5511 31.9688 19.142C32.2188 18.733 32.3438 18.2869 32.3438 17.804V16.2614C32.2472 16.3409 32.0824 16.4148 31.8494 16.483C31.6222 16.5511 31.3665 16.6108 31.0824 16.6619C30.7983 16.7131 30.517 16.7585 30.2386 16.7983C29.9602 16.8381 29.7188 16.8722 29.5142 16.9006C29.054 16.9631 28.642 17.0653 28.2784 17.2074C27.9148 17.3494 27.6278 17.5483 27.4176 17.804C27.2074 18.054 27.1023 18.3778 27.1023 18.7756C27.1023 19.3438 27.3097 19.7727 27.7244 20.0625C28.1392 20.3523 28.6676 20.4972 29.3097 20.4972ZM38.5227 22.5V9.40909H41.4716V11.6335H41.625C41.8977 10.8835 42.3494 10.2983 42.9801 9.87784C43.6108 9.4517 44.3636 9.23864 45.2386 9.23864C46.125 9.23864 46.8722 9.45455 47.4801 9.88636C48.0938 10.3125 48.5256 10.8949 48.7756 11.6335H48.9119C49.2017 10.9062 49.6903 10.3267 50.3778 9.89489C51.071 9.45739 51.892 9.23864 52.8409 9.23864C54.0455 9.23864 55.0284 9.61932 55.7898 10.3807C56.5511 11.142 56.9318 12.2528 56.9318 13.7131V22.5H53.8381V14.1903C53.8381 13.3778 53.6222 12.7841 53.1903 12.4091C52.7585 12.0284 52.2301 11.8381 51.6051 11.8381C50.8608 11.8381 50.2784 12.071 49.858 12.5369C49.4432 12.9972 49.2358 13.5966 49.2358 14.3352V22.5H46.2102V14.0625C46.2102 13.3864 46.0057 12.8466 45.5966 12.4432C45.1932 12.0398 44.6648 11.8381 44.0114 11.8381C43.5682 11.8381 43.1648 11.9517 42.8011 12.179C42.4375 12.4006 42.1477 12.7159 41.9318 13.125C41.7159 13.5284 41.608 14 41.608 14.5398V22.5H38.5227ZM65.8572 22.7557C64.5447 22.7557 63.4112 22.483 62.4567 21.9375C61.5078 21.3864 60.7777 20.608 60.2663 19.6023C59.755 18.5909 59.4993 17.4006 59.4993 16.0312C59.4993 14.6847 59.755 13.5028 60.2663 12.4858C60.7834 11.4631 61.505 10.6676 62.4311 10.0994C63.3572 9.52557 64.4453 9.23864 65.6953 9.23864C66.5021 9.23864 67.2635 9.36932 67.9794 9.63068C68.701 9.88636 69.3374 10.2841 69.8885 10.8239C70.4453 11.3636 70.8828 12.0511 71.201 12.8864C71.5192 13.7159 71.6783 14.7045 71.6783 15.8523V16.7983H60.9482V14.7188H68.7209C68.7152 14.1278 68.5874 13.6023 68.3374 13.142C68.0874 12.6761 67.7379 12.3097 67.2891 12.0426C66.8459 11.7756 66.3288 11.642 65.7379 11.642C65.1072 11.642 64.5533 11.7955 64.076 12.1023C63.5987 12.4034 63.2266 12.8011 62.9595 13.2955C62.6982 13.7841 62.5646 14.321 62.5589 14.9062V16.7216C62.5589 17.483 62.6982 18.1364 62.9766 18.6818C63.255 19.2216 63.6442 19.6364 64.1442 19.9261C64.6442 20.2102 65.2294 20.3523 65.8999 20.3523C66.3487 20.3523 66.755 20.2898 67.1186 20.1648C67.4822 20.0341 67.7976 19.8438 68.0646 19.5938C68.3317 19.3438 68.5334 19.0341 68.6697 18.6648L71.5504 18.9886C71.3686 19.75 71.022 20.4148 70.5107 20.983C70.005 21.5455 69.3572 21.983 68.5675 22.2955C67.7777 22.6023 66.8743 22.7557 65.8572 22.7557ZM74.2884 22.5V9.40909H77.2798V11.5909H77.4162C77.6548 10.8352 78.0639 10.2528 78.6435 9.84375C79.2287 9.42898 79.8963 9.22159 80.6463 9.22159C80.8168 9.22159 81.0071 9.23011 81.2173 9.24716C81.4332 9.25852 81.6122 9.27841 81.7543 9.30682V12.1449C81.6236 12.0994 81.4162 12.0597 81.1321 12.0256C80.8537 11.9858 80.5838 11.9659 80.3224 11.9659C79.7599 11.9659 79.2543 12.0881 78.8054 12.3324C78.3622 12.571 78.0128 12.9034 77.7571 13.3295C77.5014 13.7557 77.3736 14.2472 77.3736 14.804V22.5H74.2884Z" fill="white"/>
</svg>
