<svg width="131" height="28" viewBox="0 0 131 28" fill="none" xmlns="http://www.w3.org/2000/svg">
<path d="M1.72159 22.5V5.04545H12.9034V7.69602H4.88352V12.4347H12.1364V15.0852H4.88352V22.5H1.72159ZM15.6477 22.5V9.40909H18.733V22.5H15.6477ZM17.1989 7.55114C16.7102 7.55114 16.2898 7.3892 15.9375 7.06534C15.5852 6.73579 15.4091 6.34091 15.4091 5.88068C15.4091 5.41477 15.5852 5.01989 15.9375 4.69602C16.2898 4.36648 16.7102 4.2017 17.1989 4.2017C17.6932 4.2017 18.1136 4.36648 18.4602 4.69602C18.8125 5.01989 18.9886 5.41477 18.9886 5.88068C18.9886 6.34091 18.8125 6.73579 18.4602 7.06534C18.1136 7.3892 17.6932 7.55114 17.1989 7.55114ZM27.5987 27.6818C26.4908 27.6818 25.5391 27.5313 24.7436 27.2301C23.9482 26.9347 23.3089 26.5369 22.826 26.0369C22.343 25.5369 22.0078 24.983 21.8203 24.375L24.5987 23.7017C24.7237 23.9574 24.9055 24.2102 25.1442 24.4602C25.3828 24.7159 25.7038 24.9261 26.1072 25.0909C26.5163 25.2614 27.0305 25.3466 27.6499 25.3466C28.5249 25.3466 29.2493 25.1335 29.8232 24.7074C30.397 24.2869 30.6839 23.5938 30.6839 22.6278V20.1477H30.5305C30.3714 20.4659 30.1385 20.7926 29.8317 21.1278C29.5305 21.4631 29.13 21.7443 28.63 21.9716C28.1357 22.1989 27.5135 22.3125 26.7635 22.3125C25.7578 22.3125 24.8459 22.0767 24.0277 21.6051C23.2152 21.1278 22.5675 20.4176 22.0845 19.4744C21.6072 18.5256 21.3686 17.3381 21.3686 15.9119C21.3686 14.4744 21.6072 13.2614 22.0845 12.2727C22.5675 11.2784 23.218 10.5256 24.0362 10.0142C24.8544 9.49716 25.7663 9.23864 26.772 9.23864C27.5391 9.23864 28.1697 9.36932 28.6641 9.63068C29.1641 9.88636 29.5618 10.196 29.8572 10.5597C30.1527 10.9176 30.3771 11.2557 30.5305 11.5739H30.701V9.40909H33.7436V22.7131C33.7436 23.8324 33.4766 24.7585 32.9425 25.4915C32.4084 26.2244 31.6783 26.7727 30.7521 27.1364C29.826 27.5 28.7749 27.6818 27.5987 27.6818ZM27.6243 19.892C28.2777 19.892 28.8345 19.733 29.2947 19.4148C29.755 19.0966 30.1044 18.6392 30.343 18.0426C30.5817 17.446 30.701 16.7301 30.701 15.8949C30.701 15.071 30.5817 14.3494 30.343 13.7301C30.1101 13.1108 29.7635 12.6307 29.3033 12.2898C28.8487 11.9432 28.2891 11.7699 27.6243 11.7699C26.9368 11.7699 26.3629 11.9489 25.9027 12.3068C25.4425 12.6648 25.0959 13.1562 24.8629 13.7812C24.63 14.4006 24.5135 15.1051 24.5135 15.8949C24.5135 16.696 24.63 17.3977 24.8629 18C25.1016 18.5966 25.451 19.0625 25.9112 19.3977C26.3771 19.7273 26.9482 19.892 27.6243 19.892ZM36.9055 22.5V9.40909H39.8544V11.6335H40.0078C40.2805 10.8835 40.7322 10.2983 41.3629 9.87784C41.9936 9.4517 42.7464 9.23864 43.6214 9.23864C44.5078 9.23864 45.255 9.45455 45.8629 9.88636C46.4766 10.3125 46.9084 10.8949 47.1584 11.6335H47.2947C47.5845 10.9062 48.0732 10.3267 48.7607 9.89489C49.4538 9.45739 50.2749 9.23864 51.2237 9.23864C52.4283 9.23864 53.4112 9.61932 54.1726 10.3807C54.9339 11.142 55.3146 12.2528 55.3146 13.7131V22.5H52.2209V14.1903C52.2209 13.3778 52.005 12.7841 51.5732 12.4091C51.1413 12.0284 50.6129 11.8381 49.9879 11.8381C49.2436 11.8381 48.6612 12.071 48.2408 12.5369C47.826 12.9972 47.6186 13.5966 47.6186 14.3352V22.5H44.593V14.0625C44.593 13.3864 44.3885 12.8466 43.9794 12.4432C43.576 12.0398 43.0476 11.8381 42.3942 11.8381C41.951 11.8381 41.5476 11.9517 41.1839 12.179C40.8203 12.4006 40.5305 12.7159 40.3146 13.125C40.0987 13.5284 39.9908 14 39.9908 14.5398V22.5H36.9055ZM62.2116 22.7642C61.3821 22.7642 60.6349 22.6165 59.9702 22.321C59.3111 22.0199 58.7884 21.5767 58.402 20.9915C58.0213 20.4062 57.831 19.6847 57.831 18.8267C57.831 18.0881 57.9673 17.4773 58.2401 16.9943C58.5128 16.5114 58.8849 16.125 59.3565 15.8352C59.8281 15.5455 60.3594 15.3267 60.9503 15.179C61.5469 15.0256 62.1634 14.9148 62.7997 14.8466C63.5668 14.767 64.1889 14.696 64.6662 14.6335C65.1435 14.5653 65.4901 14.4631 65.706 14.3267C65.9276 14.1847 66.0384 13.9659 66.0384 13.6705V13.6193C66.0384 12.9773 65.848 12.4801 65.4673 12.1278C65.0866 11.7756 64.5384 11.5994 63.8224 11.5994C63.0668 11.5994 62.4673 11.7642 62.0241 12.0938C61.5866 12.4233 61.2912 12.8125 61.1378 13.2614L58.2571 12.8523C58.4844 12.0568 58.8594 11.392 59.3821 10.858C59.9048 10.3182 60.544 9.91477 61.2997 9.64773C62.0554 9.375 62.8906 9.23864 63.8054 9.23864C64.4361 9.23864 65.0639 9.3125 65.6889 9.46023C66.3139 9.60795 66.8849 9.85227 67.402 10.1932C67.919 10.5284 68.3338 10.9858 68.6463 11.5653C68.9645 12.1449 69.1236 12.8693 69.1236 13.7386V22.5H66.1577V20.7017H66.0554C65.8679 21.0653 65.6037 21.4062 65.2628 21.7244C64.9276 22.0369 64.5043 22.2898 63.9929 22.483C63.4872 22.6705 62.8935 22.7642 62.2116 22.7642ZM63.0128 20.4972C63.6321 20.4972 64.169 20.375 64.6236 20.1307C65.0781 19.8807 65.4276 19.5511 65.6719 19.142C65.9219 18.733 66.0469 18.2869 66.0469 17.804V16.2614C65.9503 16.3409 65.7855 16.4148 65.5526 16.483C65.3253 16.5511 65.0696 16.6108 64.7855 16.6619C64.5014 16.7131 64.2202 16.7585 63.9418 16.7983C63.6634 16.8381 63.4219 16.8722 63.2173 16.9006C62.7571 16.9631 62.3452 17.0653 61.9815 17.2074C61.6179 17.3494 61.331 17.5483 61.1207 17.804C60.9105 18.054 60.8054 18.3778 60.8054 18.7756C60.8054 19.3438 61.0128 19.7727 61.4276 20.0625C61.8423 20.3523 62.3707 20.4972 63.0128 20.4972Z" fill="white"/>
</svg>
