<svg width="131" height="28" viewBox="0 0 131 28" fill="none" xmlns="http://www.w3.org/2000/svg">
<path d="M3.96307 22.5H0.588068L6.73295 5.04545H10.6364L16.7898 22.5H13.4148L8.75284 8.625H8.61648L3.96307 22.5ZM4.07386 15.6562H13.2784V18.196H4.07386V15.6562ZM23.4119 22.7301C22.3835 22.7301 21.4631 22.4659 20.6506 21.9375C19.8381 21.4091 19.196 20.642 18.7244 19.6364C18.2528 18.6307 18.017 17.4091 18.017 15.9716C18.017 14.517 18.2557 13.2898 18.733 12.2898C19.2159 11.2841 19.8665 10.5256 20.6847 10.0142C21.5028 9.49716 22.4148 9.23864 23.4205 9.23864C24.1875 9.23864 24.8182 9.36932 25.3125 9.63068C25.8068 9.88636 26.1989 10.196 26.4886 10.5597C26.7784 10.9176 27.0028 11.2557 27.1619 11.5739H27.2898V5.04545H30.3835V22.5H27.3494V20.4375H27.1619C27.0028 20.7557 26.7727 21.0937 26.4716 21.4517C26.1705 21.804 25.7727 22.1051 25.2784 22.3551C24.7841 22.6051 24.1619 22.7301 23.4119 22.7301ZM24.2727 20.1989C24.9261 20.1989 25.483 20.0227 25.9432 19.6705C26.4034 19.3125 26.7528 18.8153 26.9915 18.179C27.2301 17.5426 27.3494 16.8011 27.3494 15.9545C27.3494 15.108 27.2301 14.3722 26.9915 13.7472C26.7585 13.1222 26.4119 12.6364 25.9517 12.2898C25.4972 11.9432 24.9375 11.7699 24.2727 11.7699C23.5852 11.7699 23.0114 11.9489 22.5511 12.3068C22.0909 12.6648 21.7443 13.1591 21.5114 13.7898C21.2784 14.4205 21.1619 15.142 21.1619 15.9545C21.1619 16.7727 21.2784 17.5028 21.5114 18.1449C21.75 18.7812 22.0994 19.2841 22.5597 19.6534C23.0256 20.017 23.5966 20.1989 24.2727 20.1989ZM39.3814 22.7557C38.103 22.7557 36.995 22.4744 36.0575 21.9119C35.12 21.3494 34.3928 20.5625 33.8757 19.5511C33.3643 18.5398 33.1087 17.358 33.1087 16.0057C33.1087 14.6534 33.3643 13.4687 33.8757 12.4517C34.3928 11.4347 35.12 10.6449 36.0575 10.0824C36.995 9.51989 38.103 9.23864 39.3814 9.23864C40.6598 9.23864 41.7678 9.51989 42.7053 10.0824C43.6428 10.6449 44.3672 11.4347 44.8786 12.4517C45.3956 13.4687 45.6541 14.6534 45.6541 16.0057C45.6541 17.358 45.3956 18.5398 44.8786 19.5511C44.3672 20.5625 43.6428 21.3494 42.7053 21.9119C41.7678 22.4744 40.6598 22.7557 39.3814 22.7557ZM39.3984 20.2841C40.0916 20.2841 40.6712 20.0937 41.1371 19.7131C41.603 19.3267 41.9496 18.8097 42.1768 18.1619C42.4098 17.5142 42.5263 16.7926 42.5263 15.9972C42.5263 15.196 42.4098 14.4716 42.1768 13.8239C41.9496 13.1705 41.603 12.6506 41.1371 12.2642C40.6712 11.8778 40.0916 11.6847 39.3984 11.6847C38.6882 11.6847 38.0973 11.8778 37.6257 12.2642C37.1598 12.6506 36.8104 13.1705 36.5774 13.8239C36.3501 14.4716 36.2365 15.196 36.2365 15.9972C36.2365 16.7926 36.3501 17.5142 36.5774 18.1619C36.8104 18.8097 37.1598 19.3267 37.6257 19.7131C38.0973 20.0937 38.6882 20.2841 39.3984 20.2841ZM48.4091 22.5V5.04545H51.4943V11.5739H51.6222C51.7813 11.2557 52.0057 10.9176 52.2955 10.5597C52.5852 10.196 52.9773 9.88636 53.4716 9.63068C53.9659 9.36932 54.5966 9.23864 55.3636 9.23864C56.375 9.23864 57.2869 9.49716 58.0994 10.0142C58.9176 10.5256 59.5653 11.2841 60.0426 12.2898C60.5256 13.2898 60.767 14.517 60.767 15.9716C60.767 17.4091 60.5313 18.6307 60.0597 19.6364C59.5881 20.642 58.946 21.4091 58.1335 21.9375C57.321 22.4659 56.4006 22.7301 55.3722 22.7301C54.6222 22.7301 54 22.6051 53.5057 22.3551C53.0114 22.1051 52.6136 21.804 52.3125 21.4517C52.017 21.0937 51.7869 20.7557 51.6222 20.4375H51.4432V22.5H48.4091ZM51.4347 15.9545C51.4347 16.8011 51.554 17.5426 51.7926 18.179C52.0369 18.8153 52.3864 19.3125 52.8409 19.6705C53.3011 20.0227 53.858 20.1989 54.5114 20.1989C55.1932 20.1989 55.7642 20.017 56.2244 19.6534C56.6847 19.2841 57.0313 18.7812 57.2642 18.1449C57.5028 17.5028 57.6222 16.7727 57.6222 15.9545C57.6222 15.142 57.5057 14.4205 57.2727 13.7898C57.0398 13.1591 56.6932 12.6648 56.233 12.3068C55.7727 11.9489 55.1989 11.7699 54.5114 11.7699C53.8523 11.7699 53.2926 11.9432 52.8324 12.2898C52.3722 12.6364 52.0227 13.1222 51.7841 13.7472C51.5511 14.3722 51.4347 15.108 51.4347 15.9545ZM69.1854 22.7557C67.8729 22.7557 66.7393 22.483 65.7848 21.9375C64.8359 21.3864 64.1058 20.608 63.5945 19.6023C63.0831 18.5909 62.8274 17.4006 62.8274 16.0312C62.8274 14.6847 63.0831 13.5028 63.5945 12.4858C64.1115 11.4631 64.8331 10.6676 65.7592 10.0994C66.6854 9.52557 67.7734 9.23864 69.0234 9.23864C69.8303 9.23864 70.5916 9.36932 71.3075 9.63068C72.0291 9.88636 72.6655 10.2841 73.2166 10.8239C73.7734 11.3636 74.2109 12.0511 74.5291 12.8864C74.8473 13.7159 75.0064 14.7045 75.0064 15.8523V16.7983H64.2763V14.7188H72.049C72.0433 14.1278 71.9155 13.6023 71.6655 13.142C71.4155 12.6761 71.0661 12.3097 70.6172 12.0426C70.174 11.7756 69.657 11.642 69.0661 11.642C68.4354 11.642 67.8814 11.7955 67.4041 12.1023C66.9268 12.4034 66.5547 12.8011 66.2876 13.2955C66.0263 13.7841 65.8928 14.321 65.8871 14.9062V16.7216C65.8871 17.483 66.0263 18.1364 66.3047 18.6818C66.5831 19.2216 66.9723 19.6364 67.4723 19.9261C67.9723 20.2102 68.5575 20.3523 69.228 20.3523C69.6768 20.3523 70.0831 20.2898 70.4467 20.1648C70.8104 20.0341 71.1257 19.8438 71.3928 19.5938C71.6598 19.3438 71.8615 19.0341 71.9979 18.6648L74.8786 18.9886C74.6967 19.75 74.3501 20.4148 73.8388 20.983C73.3331 21.5455 72.6854 21.983 71.8956 22.2955C71.1058 22.6023 70.2024 22.7557 69.1854 22.7557ZM86.348 5.04545L90.1918 11.4375H90.3281L94.1889 5.04545H97.794L92.4162 13.7727L97.8793 22.5H94.2145L90.3281 16.1506H90.1918L86.3054 22.5H82.6577L88.1719 13.7727L82.7259 5.04545H86.348ZM106.191 22.5H100.276V5.04545H106.31C108.043 5.04545 109.532 5.39489 110.776 6.09375C112.026 6.78693 112.987 7.78409 113.657 9.08523C114.327 10.3864 114.663 11.9432 114.663 13.7557C114.663 15.5739 114.325 17.1364 113.648 18.4432C112.978 19.75 112.009 20.7528 110.742 21.4517C109.481 22.1506 107.964 22.5 106.191 22.5ZM103.438 19.7642H106.038C107.254 19.7642 108.268 19.5426 109.08 19.0994C109.893 18.6506 110.504 17.983 110.913 17.0966C111.322 16.2045 111.526 15.0909 111.526 13.7557C111.526 12.4205 111.322 11.3125 110.913 10.4318C110.504 9.54545 109.898 8.88352 109.097 8.44602C108.302 8.00284 107.313 7.78125 106.131 7.78125H103.438V19.7642Z" fill="white"/>
</svg>
