<svg width="131" height="28" viewBox="0 0 131 28" fill="none" xmlns="http://www.w3.org/2000/svg">
<path d="M1.72159 22.5V5.04545H8.26705C9.60795 5.04545 10.733 5.29545 11.642 5.79545C12.5568 6.29545 13.2472 6.98295 13.7131 7.85795C14.1847 8.72727 14.4205 9.71591 14.4205 10.8239C14.4205 11.9432 14.1847 12.9375 13.7131 13.8068C13.2415 14.6761 12.5455 15.3608 11.625 15.8608C10.7045 16.3551 9.57102 16.6023 8.22443 16.6023H3.88636V14.0028H7.7983C8.58239 14.0028 9.22443 13.8665 9.72443 13.5938C10.2244 13.321 10.5938 12.946 10.8324 12.4688C11.0767 11.9915 11.1989 11.4432 11.1989 10.8239C11.1989 10.2045 11.0767 9.65909 10.8324 9.1875C10.5938 8.71591 10.2216 8.34943 9.71591 8.08807C9.21591 7.82102 8.57102 7.6875 7.78125 7.6875H4.88352V22.5H1.72159ZM20.1158 14.8295V22.5H17.0305V5.04545H20.0476V11.6335H20.201C20.5078 10.8949 20.9822 10.3125 21.6243 9.88636C22.272 9.45455 23.0959 9.23864 24.0959 9.23864C25.005 9.23864 25.7976 9.42898 26.4737 9.80966C27.1499 10.1903 27.6726 10.7472 28.0419 11.4801C28.4169 12.2131 28.6044 13.108 28.6044 14.1648V22.5H25.5192V14.642C25.5192 13.7614 25.2919 13.0767 24.8374 12.5881C24.3885 12.0937 23.7578 11.8466 22.9453 11.8466C22.3999 11.8466 21.9112 11.9659 21.4794 12.2045C21.0533 12.4375 20.718 12.7756 20.4737 13.2188C20.2351 13.6619 20.1158 14.1989 20.1158 14.8295ZM37.4595 22.7557C36.1811 22.7557 35.0732 22.4744 34.1357 21.9119C33.1982 21.3494 32.4709 20.5625 31.9538 19.5511C31.4425 18.5398 31.1868 17.358 31.1868 16.0057C31.1868 14.6534 31.4425 13.4687 31.9538 12.4517C32.4709 11.4347 33.1982 10.6449 34.1357 10.0824C35.0732 9.51989 36.1811 9.23864 37.4595 9.23864C38.7379 9.23864 39.8459 9.51989 40.7834 10.0824C41.7209 10.6449 42.4453 11.4347 42.9567 12.4517C43.4737 13.4687 43.7322 14.6534 43.7322 16.0057C43.7322 17.358 43.4737 18.5398 42.9567 19.5511C42.4453 20.5625 41.7209 21.3494 40.7834 21.9119C39.8459 22.4744 38.7379 22.7557 37.4595 22.7557ZM37.4766 20.2841C38.1697 20.2841 38.7493 20.0937 39.2152 19.7131C39.6811 19.3267 40.0277 18.8097 40.255 18.1619C40.4879 17.5142 40.6044 16.7926 40.6044 15.9972C40.6044 15.196 40.4879 14.4716 40.255 13.8239C40.0277 13.1705 39.6811 12.6506 39.2152 12.2642C38.7493 11.8778 38.1697 11.6847 37.4766 11.6847C36.7663 11.6847 36.1754 11.8778 35.7038 12.2642C35.2379 12.6506 34.8885 13.1705 34.6555 13.8239C34.4283 14.4716 34.3146 15.196 34.3146 15.9972C34.3146 16.7926 34.4283 17.5142 34.6555 18.1619C34.8885 18.8097 35.2379 19.3267 35.7038 19.7131C36.1754 20.0937 36.7663 20.2841 37.4766 20.2841ZM52.8878 9.40909V11.7955H45.3622V9.40909H52.8878ZM47.2202 6.27273H50.3054V18.5625C50.3054 18.9773 50.3679 19.2955 50.4929 19.517C50.6236 19.733 50.794 19.8807 51.0043 19.9602C51.2145 20.0398 51.4474 20.0795 51.7031 20.0795C51.8963 20.0795 52.0724 20.0653 52.2315 20.0369C52.3963 20.0085 52.5213 19.983 52.6065 19.9602L53.1264 22.3722C52.9616 22.429 52.7259 22.4915 52.419 22.5597C52.1179 22.6278 51.7486 22.6676 51.3111 22.679C50.5384 22.7017 49.8423 22.5852 49.223 22.3295C48.6037 22.0682 48.1122 21.6648 47.7486 21.1193C47.3906 20.5739 47.2145 19.892 47.2202 19.0739V6.27273ZM61.0376 22.7557C59.7592 22.7557 58.6513 22.4744 57.7138 21.9119C56.7763 21.3494 56.049 20.5625 55.532 19.5511C55.0206 18.5398 54.7649 17.358 54.7649 16.0057C54.7649 14.6534 55.0206 13.4687 55.532 12.4517C56.049 11.4347 56.7763 10.6449 57.7138 10.0824C58.6513 9.51989 59.7592 9.23864 61.0376 9.23864C62.3161 9.23864 63.424 9.51989 64.3615 10.0824C65.299 10.6449 66.0234 11.4347 66.5348 12.4517C67.0518 13.4687 67.3104 14.6534 67.3104 16.0057C67.3104 17.358 67.0518 18.5398 66.5348 19.5511C66.0234 20.5625 65.299 21.3494 64.3615 21.9119C63.424 22.4744 62.3161 22.7557 61.0376 22.7557ZM61.0547 20.2841C61.7479 20.2841 62.3274 20.0937 62.7933 19.7131C63.2592 19.3267 63.6058 18.8097 63.8331 18.1619C64.0661 17.5142 64.1825 16.7926 64.1825 15.9972C64.1825 15.196 64.0661 14.4716 63.8331 13.8239C63.6058 13.1705 63.2592 12.6506 62.7933 12.2642C62.3274 11.8778 61.7479 11.6847 61.0547 11.6847C60.3445 11.6847 59.7536 11.8778 59.282 12.2642C58.8161 12.6506 58.4666 13.1705 58.2337 13.8239C58.0064 14.4716 57.8928 15.196 57.8928 15.9972C57.8928 16.7926 58.0064 17.5142 58.2337 18.1619C58.4666 18.8097 58.8161 19.3267 59.282 19.7131C59.7536 20.0937 60.3445 20.2841 61.0547 20.2841ZM80.2756 12.8693L77.4631 13.1761C77.3835 12.892 77.2443 12.625 77.0455 12.375C76.8523 12.125 76.5909 11.9233 76.2614 11.7699C75.9318 11.6165 75.5284 11.5398 75.0511 11.5398C74.4091 11.5398 73.8693 11.679 73.4318 11.9574C73 12.2358 72.7869 12.5966 72.7926 13.0398C72.7869 13.4205 72.9261 13.7301 73.2102 13.9688C73.5 14.2074 73.9773 14.4034 74.642 14.5568L76.875 15.0341C78.1136 15.3011 79.0341 15.7244 79.6364 16.304C80.2443 16.8835 80.5511 17.642 80.5568 18.5795C80.5511 19.4034 80.3097 20.1307 79.8324 20.7614C79.3608 21.3864 78.7045 21.875 77.8636 22.2273C77.0227 22.5795 76.0568 22.7557 74.9659 22.7557C73.3636 22.7557 72.0739 22.4205 71.0966 21.75C70.1193 21.0739 69.5369 20.1335 69.3494 18.929L72.358 18.6392C72.4943 19.2301 72.7841 19.6761 73.2273 19.9773C73.6705 20.2784 74.2472 20.429 74.9574 20.429C75.6903 20.429 76.2784 20.2784 76.7216 19.9773C77.1705 19.6761 77.3949 19.304 77.3949 18.8608C77.3949 18.4858 77.25 18.1761 76.9602 17.9318C76.6761 17.6875 76.233 17.5 75.6307 17.3693L73.3977 16.9006C72.142 16.6392 71.2131 16.1989 70.6108 15.5795C70.0085 14.9545 69.7102 14.1648 69.7159 13.2102C69.7102 12.4034 69.929 11.7045 70.3722 11.1136C70.821 10.517 71.4432 10.0568 72.2386 9.73295C73.0398 9.40341 73.9631 9.23864 75.0085 9.23864C76.5426 9.23864 77.75 9.56534 78.6307 10.2188C79.517 10.8722 80.0653 11.7557 80.2756 12.8693ZM86.1861 14.8295V22.5H83.1009V5.04545H86.1179V11.6335H86.2713C86.5781 10.8949 87.0526 10.3125 87.6946 9.88636C88.3423 9.45455 89.1662 9.23864 90.1662 9.23864C91.0753 9.23864 91.8679 9.42898 92.544 9.80966C93.2202 10.1903 93.7429 10.7472 94.1122 11.4801C94.4872 12.2131 94.6747 13.108 94.6747 14.1648V22.5H91.5895V14.642C91.5895 13.7614 91.3622 13.0767 90.9077 12.5881C90.4588 12.0937 89.8281 11.8466 89.0156 11.8466C88.4702 11.8466 87.9815 11.9659 87.5497 12.2045C87.1236 12.4375 86.7884 12.7756 86.544 13.2188C86.3054 13.6619 86.1861 14.1989 86.1861 14.8295ZM103.53 22.7557C102.251 22.7557 101.143 22.4744 100.206 21.9119C99.2685 21.3494 98.5412 20.5625 98.0241 19.5511C97.5128 18.5398 97.2571 17.358 97.2571 16.0057C97.2571 14.6534 97.5128 13.4687 98.0241 12.4517C98.5412 11.4347 99.2685 10.6449 100.206 10.0824C101.143 9.51989 102.251 9.23864 103.53 9.23864C104.808 9.23864 105.916 9.51989 106.854 10.0824C107.791 10.6449 108.516 11.4347 109.027 12.4517C109.544 13.4687 109.803 14.6534 109.803 16.0057C109.803 17.358 109.544 18.5398 109.027 19.5511C108.516 20.5625 107.791 21.3494 106.854 21.9119C105.916 22.4744 104.808 22.7557 103.53 22.7557ZM103.547 20.2841C104.24 20.2841 104.82 20.0937 105.286 19.7131C105.751 19.3267 106.098 18.8097 106.325 18.1619C106.558 17.5142 106.675 16.7926 106.675 15.9972C106.675 15.196 106.558 14.4716 106.325 13.8239C106.098 13.1705 105.751 12.6506 105.286 12.2642C104.82 11.8778 104.24 11.6847 103.547 11.6847C102.837 11.6847 102.246 11.8778 101.774 12.2642C101.308 12.6506 100.959 13.1705 100.726 13.8239C100.499 14.4716 100.385 15.196 100.385 15.9972C100.385 16.7926 100.499 17.5142 100.726 18.1619C100.959 18.8097 101.308 19.3267 101.774 19.7131C102.246 20.0937 102.837 20.2841 103.547 20.2841ZM112.421 27.4091V9.40909H115.455V11.5739H115.634C115.793 11.2557 116.018 10.9176 116.308 10.5597C116.597 10.196 116.989 9.88636 117.484 9.63068C117.978 9.36932 118.609 9.23864 119.376 9.23864C120.387 9.23864 121.299 9.49716 122.112 10.0142C122.93 10.5256 123.577 11.2841 124.055 12.2898C124.538 13.2898 124.779 14.517 124.779 15.9716C124.779 17.4091 124.543 18.6307 124.072 19.6364C123.6 20.642 122.958 21.4091 122.146 21.9375C121.333 22.4659 120.413 22.7301 119.384 22.7301C118.634 22.7301 118.012 22.6051 117.518 22.3551C117.023 22.1051 116.626 21.804 116.325 21.4517C116.029 21.0937 115.799 20.7557 115.634 20.4375H115.506V27.4091H112.421ZM115.447 15.9545C115.447 16.8011 115.566 17.5426 115.805 18.179C116.049 18.8153 116.398 19.3125 116.853 19.6705C117.313 20.0227 117.87 20.1989 118.523 20.1989C119.205 20.1989 119.776 20.017 120.237 19.6534C120.697 19.2841 121.043 18.7812 121.276 18.1449C121.515 17.5028 121.634 16.7727 121.634 15.9545C121.634 15.142 121.518 14.4205 121.285 13.7898C121.052 13.1591 120.705 12.6648 120.245 12.3068C119.785 11.9489 119.211 11.7699 118.523 11.7699C117.864 11.7699 117.305 11.9432 116.844 12.2898C116.384 12.6364 116.035 13.1222 115.796 13.7472C115.563 14.3722 115.447 15.108 115.447 15.9545Z" fill="white"/>
</svg>
