<svg width="131" height="28" viewBox="0 0 131 28" fill="none" xmlns="http://www.w3.org/2000/svg">
<path d="M5.39489 22.5L0.46875 5.04545H3.86932L7.0142 17.8722H7.17614L10.5341 5.04545H13.6278L16.9943 17.8807H17.1477L20.2926 5.04545H23.6932L18.767 22.5H15.6477L12.1534 10.2528H12.017L8.5142 22.5H5.39489ZM30.2088 22.7557C28.8963 22.7557 27.7628 22.483 26.8082 21.9375C25.8594 21.3864 25.1293 20.608 24.6179 19.6023C24.1065 18.5909 23.8509 17.4006 23.8509 16.0312C23.8509 14.6847 24.1065 13.5028 24.6179 12.4858C25.1349 11.4631 25.8565 10.6676 26.7827 10.0994C27.7088 9.52557 28.7969 9.23864 30.0469 9.23864C30.8537 9.23864 31.6151 9.36932 32.331 9.63068C33.0526 9.88636 33.6889 10.2841 34.2401 10.8239C34.7969 11.3636 35.2344 12.0511 35.5526 12.8864C35.8707 13.7159 36.0298 14.7045 36.0298 15.8523V16.7983H25.2997V14.7188H33.0724C33.0668 14.1278 32.9389 13.6023 32.6889 13.142C32.4389 12.6761 32.0895 12.3097 31.6406 12.0426C31.1974 11.7756 30.6804 11.642 30.0895 11.642C29.4588 11.642 28.9048 11.7955 28.4276 12.1023C27.9503 12.4034 27.5781 12.8011 27.3111 13.2955C27.0497 13.7841 26.9162 14.321 26.9105 14.9062V16.7216C26.9105 17.483 27.0497 18.1364 27.3281 18.6818C27.6065 19.2216 27.9957 19.6364 28.4957 19.9261C28.9957 20.2102 29.581 20.3523 30.2514 20.3523C30.7003 20.3523 31.1065 20.2898 31.4702 20.1648C31.8338 20.0341 32.1491 19.8438 32.4162 19.5938C32.6832 19.3438 32.8849 19.0341 33.0213 18.6648L35.902 18.9886C35.7202 19.75 35.3736 20.4148 34.8622 20.983C34.3565 21.5455 33.7088 21.983 32.919 22.2955C32.1293 22.6023 31.2259 22.7557 30.2088 22.7557ZM38.7763 22.5V5.04545H41.8615V11.5739H41.9893C42.1484 11.2557 42.3729 10.9176 42.6626 10.5597C42.9524 10.196 43.3445 9.88636 43.8388 9.63068C44.3331 9.36932 44.9638 9.23864 45.7308 9.23864C46.7422 9.23864 47.6541 9.49716 48.4666 10.0142C49.2848 10.5256 49.9325 11.2841 50.4098 12.2898C50.8928 13.2898 51.1342 14.517 51.1342 15.9716C51.1342 17.4091 50.8984 18.6307 50.4268 19.6364C49.9553 20.642 49.3132 21.4091 48.5007 21.9375C47.6882 22.4659 46.7678 22.7301 45.7393 22.7301C44.9893 22.7301 44.3672 22.6051 43.8729 22.3551C43.3786 22.1051 42.9808 21.804 42.6797 21.4517C42.3842 21.0937 42.1541 20.7557 41.9893 20.4375H41.8104V22.5H38.7763ZM41.8018 15.9545C41.8018 16.8011 41.9212 17.5426 42.1598 18.179C42.4041 18.8153 42.7536 19.3125 43.2081 19.6705C43.6683 20.0227 44.2251 20.1989 44.8786 20.1989C45.5604 20.1989 46.1314 20.017 46.5916 19.6534C47.0518 19.2841 47.3984 18.7812 47.6314 18.1449C47.87 17.5028 47.9893 16.7727 47.9893 15.9545C47.9893 15.142 47.8729 14.4205 47.6399 13.7898C47.407 13.1591 47.0604 12.6648 46.6001 12.3068C46.1399 11.9489 45.5661 11.7699 44.8786 11.7699C44.2195 11.7699 43.6598 11.9432 43.1996 12.2898C42.7393 12.6364 42.3899 13.1222 42.1513 13.7472C41.9183 14.3722 41.8018 15.108 41.8018 15.9545ZM53.8935 22.5V5.04545H65.0753V7.69602H57.0554V12.4347H64.3082V15.0852H57.0554V22.5H53.8935ZM70.9048 5.04545V22.5H67.8196V5.04545H70.9048ZM79.7876 22.7557C78.5092 22.7557 77.4013 22.4744 76.4638 21.9119C75.5263 21.3494 74.799 20.5625 74.282 19.5511C73.7706 18.5398 73.5149 17.358 73.5149 16.0057C73.5149 14.6534 73.7706 13.4687 74.282 12.4517C74.799 11.4347 75.5263 10.6449 76.4638 10.0824C77.4013 9.51989 78.5092 9.23864 79.7876 9.23864C81.0661 9.23864 82.174 9.51989 83.1115 10.0824C84.049 10.6449 84.7734 11.4347 85.2848 12.4517C85.8018 13.4687 86.0604 14.6534 86.0604 16.0057C86.0604 17.358 85.8018 18.5398 85.2848 19.5511C84.7734 20.5625 84.049 21.3494 83.1115 21.9119C82.174 22.4744 81.0661 22.7557 79.7876 22.7557ZM79.8047 20.2841C80.4979 20.2841 81.0774 20.0937 81.5433 19.7131C82.0092 19.3267 82.3558 18.8097 82.5831 18.1619C82.8161 17.5142 82.9325 16.7926 82.9325 15.9972C82.9325 15.196 82.8161 14.4716 82.5831 13.8239C82.3558 13.1705 82.0092 12.6506 81.5433 12.2642C81.0774 11.8778 80.4979 11.6847 79.8047 11.6847C79.0945 11.6847 78.5036 11.8778 78.032 12.2642C77.5661 12.6506 77.2166 13.1705 76.9837 13.8239C76.7564 14.4716 76.6428 15.196 76.6428 15.9972C76.6428 16.7926 76.7564 17.5142 76.9837 18.1619C77.2166 18.8097 77.5661 19.3267 78.032 19.7131C78.5036 20.0937 79.0945 20.2841 79.8047 20.2841ZM91.0057 22.5L87.3068 9.40909H90.4517L92.7528 18.6136H92.8722L95.2244 9.40909H98.3352L100.688 18.5625H100.815L103.082 9.40909H106.236L102.528 22.5H99.3153L96.8608 13.6534H96.6818L94.2273 22.5H91.0057Z" fill="white"/>
</svg>
